<svg width="176" height="38" viewBox="0 0 176 38" fill="none" xmlns="http://www.w3.org/2000/svg">
<path d="M12.2001 19.0009C12.2001 19.0119 12.2001 19.0228 12.2001 19.0338C12.2056 20.3837 11.4136 21.6057 10.164 22.0989L0.882723 25.7687C0.5013 24.7494 0.205242 23.6881 0 22.5958L9.08878 19.0009L0 15.406C0.205242 14.3119 0.503116 13.2524 0.882723 12.2331L10.1658 15.9029C11.4136 16.3961 12.2074 17.6181 12.2019 18.968C12.2019 18.979 12.2019 18.9899 12.2019 18.9991L12.2001 19.0009Z" fill="white"/>
<path d="M37.632 15.406L28.5432 18.9991L37.632 22.5921C37.4268 23.6863 37.1307 24.7476 36.7493 25.7668L27.4662 22.0971C26.2184 21.6039 25.4246 20.3819 25.4301 19.032C25.4301 19.021 25.4301 19.01 25.4301 18.9991C25.4301 18.9881 25.4301 18.9772 25.4301 18.968C25.4246 17.6181 26.2165 16.3961 27.4662 15.9029L36.7493 12.2331C37.1307 13.2524 37.4268 14.3137 37.632 15.406Z" fill="white"/>
<path d="M15.5512 13.2122C15.5312 13.2232 15.5094 13.236 15.4894 13.2488C14.327 13.9301 12.8739 13.8589 11.8223 13.0149L4.0249 6.76777C4.72055 5.91838 5.48703 5.12926 6.31526 4.41138L13.9528 10.5289L12.5034 0.81469C13.526 0.454838 14.5867 0.180839 15.6783 0L17.1586 9.91694C17.3566 11.2449 16.7136 12.5492 15.553 13.2122H15.5512Z" fill="white"/>
<path d="M33.6071 31.2322C32.9114 32.0816 32.1449 32.8707 31.3167 33.5886L23.681 27.4711L25.1304 37.1853C24.1078 37.5452 23.0471 37.8192 21.9555 38L20.4752 28.0831C20.2772 26.7551 20.9202 25.4508 22.0808 24.7878C22.1008 24.7768 22.1226 24.764 22.1426 24.7531C23.305 24.0717 24.758 24.143 25.8097 24.9869L33.6071 31.2322Z" fill="white"/>
<path d="M33.6071 6.76777L25.8097 13.0131C24.7562 13.857 23.305 13.9283 22.1426 13.2469C22.1226 13.2341 22.1026 13.2232 22.0808 13.2122C20.9202 12.5492 20.2772 11.2431 20.4752 9.91694L21.9555 0C23.0471 0.180839 24.1096 0.454838 25.1304 0.81469L23.681 10.5289L31.3167 4.41138C32.1449 5.12926 32.9114 5.91838 33.6071 6.76777Z" fill="white"/>
<path d="M17.1568 28.0831L15.6765 38C14.5849 37.8192 13.5223 37.5452 12.5016 37.1853L13.951 27.4711L6.31343 33.5886C5.48519 32.8707 4.71871 32.0816 4.02307 31.2322L11.8205 24.9869C12.8739 24.143 14.3251 24.0717 15.4876 24.7531C15.5075 24.7658 15.5275 24.7768 15.5493 24.7878C16.7099 25.4508 17.3529 26.7551 17.1549 28.0831H17.1568Z" fill="white"/>
<path d="M173.195 9.79272C172.892 9.79272 172.607 9.73609 172.342 9.62101C172.076 9.50776 171.842 9.34884 171.642 9.14608C171.441 8.94332 171.283 8.70951 171.17 8.44282C171.056 8.17612 170.999 7.88934 170.999 7.58429C170.999 7.27923 171.056 6.99245 171.17 6.72576C171.283 6.45906 171.441 6.22342 171.642 6.02249C171.844 5.81973 172.076 5.66264 172.342 5.54756C172.607 5.43431 172.892 5.37585 173.195 5.37585C173.499 5.37585 173.784 5.43248 174.049 5.54756C174.314 5.66264 174.548 5.81973 174.748 6.02249C174.95 6.22525 175.108 6.45906 175.22 6.72576C175.333 6.99245 175.391 7.27923 175.391 7.58429C175.391 7.88934 175.335 8.17612 175.22 8.44282C175.106 8.70951 174.95 8.94515 174.748 9.14608C174.547 9.34884 174.314 9.50776 174.049 9.62101C173.784 9.73609 173.499 9.79272 173.195 9.79272ZM173.195 9.38172C173.524 9.38172 173.824 9.30135 174.094 9.13877C174.365 8.9762 174.579 8.76065 174.741 8.48848C174.903 8.21631 174.983 7.91491 174.983 7.58429C174.983 7.25366 174.903 6.95226 174.741 6.68009C174.579 6.40792 174.365 6.19237 174.094 6.0298C173.824 5.86723 173.524 5.78685 173.195 5.78685C172.867 5.78685 172.567 5.86723 172.296 6.0298C172.026 6.19237 171.811 6.40792 171.65 6.68009C171.488 6.95226 171.408 7.25366 171.408 7.58429C171.408 7.91491 171.488 8.21631 171.65 8.48848C171.811 8.76065 172.026 8.9762 172.296 9.13877C172.567 9.30135 172.867 9.38172 173.195 9.38172Z" fill="white"/>
<path d="M173.669 7.74869C173.762 7.69937 173.838 7.62995 173.898 7.53679C173.958 7.44546 173.987 7.33769 173.987 7.21165C173.987 7.08561 173.958 6.97966 173.902 6.89381C173.844 6.80796 173.771 6.7422 173.684 6.69836C173.597 6.65452 173.506 6.6326 173.413 6.6326H172.531V8.48483H172.852V7.81993H173.357L173.702 8.48483H174.062L173.669 7.74869ZM172.85 6.8865H173.313C173.393 6.8865 173.468 6.91208 173.535 6.9614C173.602 7.01072 173.637 7.09474 173.637 7.21165C173.637 7.32856 173.604 7.41258 173.535 7.47286C173.468 7.53314 173.391 7.56419 173.306 7.56419H172.85V6.88468V6.8865Z" fill="white"/>
<path d="M57.8838 29.4421H53.6372L46.4283 9.53882H49.9629L55.7496 25.5678L61.5363 9.53882H65.0709L57.8819 29.4421H57.8838Z" fill="white"/>
<path d="M76.1721 29.9591C74.3558 29.9591 72.6993 29.4896 71.2045 28.5489C69.7097 27.6081 68.5182 26.3478 67.63 24.7659C66.7419 23.184 66.2969 21.4322 66.2969 19.5124C66.2969 18.0565 66.553 16.6957 67.067 15.4298C67.581 14.1658 68.2875 13.0533 69.1902 12.0925C70.0911 11.1317 71.1428 10.3809 72.3397 9.8384C73.5385 9.29588 74.8153 9.02371 76.1721 9.02371C77.6597 9.02371 79.0255 9.32511 80.2697 9.92791C81.5139 10.5307 82.58 11.3673 83.47 12.4414C84.3582 13.5136 85.023 14.7594 85.4643 16.1751C85.9057 17.5926 86.0673 19.1087 85.9474 20.7235H69.8314C69.9894 21.8487 70.3581 22.8515 70.9375 23.732C71.5169 24.6124 72.258 25.3102 73.1589 25.8272C74.0598 26.3441 75.0642 26.609 76.1703 26.6218C77.3545 26.6218 78.428 26.313 79.3888 25.6975C80.3496 25.0819 81.127 24.238 81.7191 23.1657L85.0956 23.9603C84.3055 25.7212 83.114 27.1624 81.5211 28.2804C79.9282 29.4001 78.1446 29.9591 76.1685 29.9591H76.1721ZM69.7351 18.1004H82.6127C82.5074 16.9879 82.1514 15.9723 81.5465 15.0517C80.9399 14.1311 80.1698 13.3931 79.2362 12.8378C78.3008 12.2825 77.2801 12.003 76.1757 12.003C75.0714 12.003 74.0561 12.2752 73.1334 12.8177C72.2108 13.3602 71.4515 14.0927 70.8522 15.0133C70.2528 15.934 69.8804 16.9624 69.737 18.1022L69.7351 18.1004Z" fill="white"/>
<path d="M106.766 17.0884V29.4439H103.448V17.8246C103.448 16.8181 103.204 15.9047 102.717 15.0827C102.231 14.2626 101.579 13.6105 100.761 13.1264C99.9439 12.6423 99.0357 12.4012 98.0349 12.4012C97.0342 12.4012 96.1423 12.6423 95.3196 13.1264C94.4968 13.6105 93.8411 14.2626 93.3543 15.0827C92.8676 15.9047 92.6242 16.8181 92.6242 17.8246V29.4439H89.3058V9.57902H92.6242V12.0614C93.3216 11.1353 94.2044 10.3955 95.2705 9.84754C96.3367 9.29771 97.4955 9.02371 98.7469 9.02371C100.222 9.02371 101.568 9.38539 102.786 10.1069C104.003 10.8285 104.971 11.7984 105.689 13.0168C106.406 14.2352 106.766 15.5924 106.766 17.0884Z" fill="white"/>
<path d="M119.011 29.9591C117.195 29.9591 115.539 29.4896 114.044 28.5489C112.549 27.6081 111.358 26.3478 110.469 24.7659C109.581 23.184 109.136 21.4322 109.136 19.5124C109.136 18.0565 109.392 16.6957 109.906 15.4298C110.42 14.1658 111.127 13.0533 112.03 12.0925C112.93 11.1317 113.982 10.3809 115.179 9.8384C116.378 9.29588 117.655 9.02371 119.011 9.02371C120.828 9.02371 122.484 9.49316 123.979 10.4339C125.474 11.3746 126.665 12.6387 127.554 14.2279C128.442 15.8171 128.887 17.578 128.887 19.5106C128.887 20.9536 128.631 22.3054 128.117 23.5621C127.603 24.8207 126.896 25.9294 125.993 26.8884C125.091 27.8493 124.044 28.6 122.853 29.1425C121.661 29.6851 120.381 29.9572 119.011 29.9572V29.9591ZM119.011 26.6218C120.248 26.6218 121.365 26.2948 122.359 25.639C123.352 24.9832 124.137 24.1156 124.709 23.0378C125.281 21.9583 125.568 20.7837 125.568 19.5124C125.568 18.241 125.276 17.0227 124.689 15.9376C124.103 14.8526 123.316 13.9849 122.33 13.3365C121.342 12.688 120.236 12.3628 119.011 12.3628C117.787 12.3628 116.661 12.6898 115.673 13.3456C114.685 14.0014 113.902 14.8727 113.323 15.9577C112.743 17.0427 112.455 18.2282 112.455 19.5124C112.455 20.7965 112.751 22.0387 113.343 23.1182C113.935 24.1978 114.732 25.0526 115.733 25.681C116.734 26.3094 117.827 26.6254 119.011 26.6254V26.6218Z" fill="white"/>
<path d="M149.645 17.0884V29.4439H146.327V17.8246C146.327 16.8181 146.083 15.9047 145.597 15.0827C145.11 14.2626 144.458 13.6105 143.64 13.1264C142.823 12.6423 141.915 12.4012 140.914 12.4012C139.913 12.4012 139.022 12.6423 138.199 13.1264C137.376 13.6105 136.72 14.2626 136.234 15.0827C135.747 15.9047 135.503 16.8181 135.503 17.8246V29.4439H132.185V9.57902H135.503V12.0614C136.201 11.1353 137.084 10.3955 138.15 9.84754C139.216 9.29771 140.375 9.02371 141.626 9.02371C143.101 9.02371 144.447 9.38539 145.666 10.1069C146.883 10.8285 147.851 11.7984 148.568 13.0168C149.286 14.2352 149.645 15.5924 149.645 17.0884Z" fill="white"/>
<path d="M168.273 27.8017C169.29 26.7094 169.808 25.3942 169.808 23.8927C169.808 22.7054 169.434 21.6057 168.698 20.6212C167.963 19.6384 166.88 18.9625 165.483 18.6118L158.165 16.8546C157.606 16.7249 157.172 16.4582 156.876 16.0618C156.583 15.6691 156.435 15.2252 156.435 14.743C156.435 14.1913 156.645 13.7054 157.059 13.2981C157.473 12.8926 158.031 12.688 158.718 12.688H168.482V9.4968H158.507C156.758 9.4968 155.372 10.0284 154.388 11.0769C153.4 12.129 152.9 13.3931 152.9 14.8325C152.9 15.9997 153.258 17.0811 153.964 18.0456C154.669 19.0064 155.724 19.6622 157.103 19.9928L164.454 21.75C165.033 21.8797 165.492 22.161 165.818 22.5866C166.141 23.0104 166.306 23.4799 166.306 23.9822C166.306 24.5722 166.086 25.1019 165.656 25.5586C165.222 26.0171 164.632 26.2491 163.901 26.2491H153.581V29.4403H164.052C165.841 29.4403 167.262 28.8886 168.277 27.7999L168.273 27.8017Z" fill="white"/>
</svg>
